# xmcd
#
# Track frame offsets: 
#        150
#        18215
#        29837
#        51182
#        65666
#        84100
#        102710
#        124407
#        144792
#        153489
#        169018
#
# Disc length: 2534 seconds
#
# Revision: 0
# Processed by: cddbd v1.5.2PL0 Copyright (c) Steve Scherf et al.
# Submitted via: ExactAudioCopy v1.3
#
DISCID=9209e40b
DTITLE=San2 and Sebastian - The Rooftop Stories
DYEAR=2020
DGENRE=Blues
TTITLE0=Stop The World
TTITLE1=Bitchin' Around 
TTITLE2=This Old House
TTITLE3=You Better Run This Time
TTITLE4=I'm Driftin' Home On No Man's Land
TTITLE5=I Guess You Got Old
TTITLE6=Cruisin' In My Car
TTITLE7=Blackbird - Live Medley
TTITLE8=On The Rooftop
TTITLE9=Water Under Bridges
TTITLE10=Rescue Me
EXTD=
EXTT0=
EXTT1=
EXTT2=
EXTT3=
EXTT4=
EXTT5=
EXTT6=
EXTT7=
EXTT8=
EXTT9=
EXTT10=
PLAYORDER=
